<svg xmlns="http://www.w3.org/2000/svg" xmlns:xlink="http://www.w3.org/1999/xlink" xmlns:lucid="lucid" width="804" height="342"><g transform="translate(-159 -310)" lucid:page-tab-id="0_0"><path d="M240 565c0-2.76 2.24-5 5-5h630c2.76 0 5 2.24 5 5v70c0 2.76-2.24 5-5 5H245c-2.76 0-5-2.24-5-5z" stroke="#000" stroke-width="2" fill="#fff"/><use xlink:href="#a" transform="matrix(1,0,0,1,245,565) translate(294.05 39.1)"/><path d="M240 485c0-2.76 2.24-5 5-5h150c2.76 0 5 2.24 5 5v70c0 2.76-2.24 5-5 5H245c-2.76 0-5-2.24-5-5z" stroke="#000" stroke-width="2" fill="#fff"/><use xlink:href="#b" transform="matrix(1,0,0,1,245,485) translate(43.125 38.6)"/><path d="M720 485c0-2.76 2.24-5 5-5h150c2.76 0 5 2.24 5 5v70c0 2.76-2.24 5-5 5H725c-2.76 0-5-2.24-5-5z" stroke="#000" stroke-width="2" fill="#fff"/><use xlink:href="#b" transform="matrix(1,0,0,1,725,485) translate(43.125 38.6)"/><path d="M240 405c0-2.76 2.24-5 5-5h150c2.76 0 5 2.24 5 5v70c0 2.76-2.24 5-5 5H245c-2.76 0-5-2.24-5-5z" stroke="#000" stroke-width="2" fill="#fff"/><use xlink:href="#c" transform="matrix(1,0,0,1,245,405) translate(42.025 38.6)"/><path d="M720 405c0-2.76 2.24-5 5-5h150c2.76 0 5 2.24 5 5v70c0 2.76-2.24 5-5 5H725c-2.76 0-5-2.24-5-5z" stroke="#000" stroke-width="2" fill="#fff"/><use xlink:href="#c" transform="matrix(1,0,0,1,725,405) translate(42.025 38.6)"/><path d="M423.4 521h-3.9v-2h3.9zm15.62 0h-7.8v-2h7.8zm15.6 0h-7.8v-2h7.8zm15.62 0h-7.8v-2h7.8zm15.6 0h-7.8v-2h7.8zm15.62 0h-7.8v-2h7.8zm15.6 0h-7.8v-2h7.8zm15.62 0h-7.8v-2h7.8zm62.44 0h-7.8v-2h7.8zm15.62 0h-7.8v-2h7.8zm15.6 0h-7.8v-2h7.8zm15.62 0h-7.8v-2h7.8zm15.6 0h-7.8v-2h7.8zm15.62 0h-7.8v-2h7.8zm15.6 0H681v-2h7.8zm11.72 0h-3.9v-2h3.9zM418.5 524.64L404.24 520l14.26-4.64z"/><path d="M419.5 526l-18.5-6 18.5-6zm-12.03-6l10.03 3.26v-6.52zM715.76 520l-14.26 4.64v-9.28z"/><path d="M719 520l-18.5 6v-12zm-16.5 3.26l10.03-3.26-10.03-3.26z"/><use xlink:href="#d" transform="matrix(1,0,0,1,538.225,509.2) translate(0 14.4)"/><path d="M423.4 441h-3.9v-2h3.9zm15.62 0h-7.8v-2h7.8zm15.6 0h-7.8v-2h7.8zm15.62 0h-7.8v-2h7.8zm15.6 0h-7.8v-2h7.8zm15.62 0h-7.8v-2h7.8zm15.6 0h-7.8v-2h7.8zm15.62 0h-7.8v-2h7.8zm62.44 0h-7.8v-2h7.8zm15.62 0h-7.8v-2h7.8zm15.6 0h-7.8v-2h7.8zm15.62 0h-7.8v-2h7.8zm15.6 0h-7.8v-2h7.8zm15.62 0h-7.8v-2h7.8zm15.6 0H681v-2h7.8zm11.72 0h-3.9v-2h3.9zM418.5 444.64L404.24 440l14.26-4.64z"/><path d="M419.5 446l-18.5-6 18.5-6zm-12.03-6l10.03 3.26v-6.52zM715.76 440l-14.26 4.64v-9.28z"/><path d="M719 440l-18.5 6v-12zm-16.5 3.26l10.03-3.26-10.03-3.26z"/><use xlink:href="#e" transform="matrix(1,0,0,1,537.6,429.2) translate(0 14.4)"/><path d="M240 325c0-2.76 2.24-5 5-5h150c2.76 0 5 2.24 5 5v70c0 2.76-2.24 5-5 5H245c-2.76 0-5-2.24-5-5z" stroke="#000" stroke-width="2" fill="#fff"/><use xlink:href="#f" transform="matrix(1,0,0,1,245,325) translate(32.574999999999996 38.6)"/><path d="M720 325c0-2.76 2.24-5 5-5h150c2.76 0 5 2.24 5 5v70c0 2.76-2.24 5-5 5H725c-2.76 0-5-2.24-5-5z" stroke="#000" stroke-width="2" fill="#fff"/><use xlink:href="#f" transform="matrix(1,0,0,1,725,325) translate(32.574999999999996 38.6)"/><path d="M423.4 361h-3.9v-2h3.9zm15.62 0h-7.8v-2h7.8zm15.6 0h-7.8v-2h7.8zm15.62 0h-7.8v-2h7.8zm15.6 0h-7.8v-2h7.8zm15.62 0h-7.8v-2h7.8zm15.6 0h-7.8v-2h7.8zm11.52 0h-3.7v-2h3.7zm82.16 0h-7.8v-2h7.8zm15.6 0h-7.8v-2h7.8zm15.62 0h-7.8v-2h7.8zm15.6 0h-7.8v-2h7.8zm15.62 0h-7.8v-2h7.8zm15.6 0H681v-2h7.8zm11.72 0h-3.9v-2h3.9zm-105.38 0h-3.7v-2h3.7zM418.5 364.64L404.24 360l14.26-4.64z"/><path d="M419.5 366l-18.5-6 18.5-6zm-12.03-6l10.03 3.26v-6.52zM715.76 360l-14.26 4.64v-9.28z"/><path d="M719 360l-18.5 6v-12zm-16.5 3.26l10.03-3.26-10.03-3.26z"/><use xlink:href="#g" transform="matrix(1,0,0,1,528.575,349.2) translate(0 14.4)"/><path d="M200 413.5l.82 2.5 2 1.46 1.26.2h16.42v2h-16.58l-1.9-.3-2.9-2.12-1.12-3.4v-5.04h2zm20.5-35.17h-16.34l-2.5.82-1.46 2-.2 1.26v4.8h-2v-4.95l.3-1.9 2.13-2.9 3.4-1.12h16.67zM235.76 377.33l-14.26 4.64v-9.27z"/><path d="M239 377.33l-18.5 6.02v-12.03zm-16.5 3.26l10.03-3.27-10.03-3.26zM235.76 418.67l-14.26 4.63v-9.27z"/><path d="M239 418.67l-18.5 6v-12.02zm-16.5 3.26l10.03-3.26-10.03-3.26z"/><use xlink:href="#g" transform="matrix(1,0,0,1,167.575,387.2) translate(0 14.4)"/><path d="M922 412.5l-1.1 3.4-2.92 2.13-1.9.3H899.5v-2h16.42l1.26-.2 2-1.46.82-2.5v-3.37h2zm-2.43-33.72l2.12 2.9.3 1.9v3.62h-2v-3.45l-.2-1.27-1.46-2-2.5-.8H899.5v-2h16.66zM898.5 383.3l-14.26-4.63 14.26-4.64z"/><path d="M899.5 384.68l-18.5-6 18.5-6.03zm-12.03-6l10.03 3.25v-6.52zM898.5 421.97l-14.26-4.64 14.26-4.63z"/><path d="M899.5 423.35l-18.5-6.02 18.5-6zm-12.03-6.02l10.03 3.26v-6.53z"/><use xlink:href="#g" transform="matrix(1,0,0,1,889.575,387.2) translate(0 14.4)"/><path d="M200 492.17l.82 2.5 2 1.46 1.26.2h16.42v2h-16.58l-1.9-.3-2.9-2.13-1.12-3.4v-3.28h2zm20.5-31.67h-16.34l-2.5.82-1.46 2-.2 1.26v3.04h-2v-3.2l.3-1.9 2.13-2.9 3.4-1.12h16.67zM235.76 459.5l-14.26 4.64v-9.28z"/><path d="M239 459.5l-18.5 6v-12zm-16.5 3.26l10.03-3.26-10.03-3.26zM235.76 497.33l-14.26 4.64v-9.27z"/><path d="M239 497.33l-18.5 6.02v-12.03zm-16.5 3.26l10.03-3.27-10.03-3.26z"/><use xlink:href="#e" transform="matrix(1,0,0,1,176.6,467.6166666666667) translate(0 14.4)"/><path d="M922 492.5l-1.1 3.4-2.92 2.13-1.9.3H899.5v-2h16.42l1.26-.2 2-1.46.82-2.5v-2.7h2zm-2.43-32.4l2.12 2.92.3 1.9v2.95h-2v-2.8l-.2-1.25-1.46-2-2.5-.82H899.5v-2h16.66zM898.5 464.64L884.24 460l14.26-4.64z"/><path d="M899.5 466l-18.5-6 18.5-6zm-12.03-6l10.03 3.26v-6.52zM898.5 501.97l-14.26-4.64 14.26-4.63z"/><path d="M899.5 503.35l-18.5-6.02 18.5-6zm-12.03-6.02l10.03 3.26v-6.53z"/><use xlink:href="#e" transform="matrix(1,0,0,1,898.6,467.8666666666667) translate(0 14.4)"/><path d="M200 574.84l.82 2.5 2 1.46 1.26.2h16.42v2h-16.58l-1.9-.3-2.9-2.13-1.12-3.4v-4.62h2zm20.5-34.34h-16.34l-2.5.82-1.46 2-.2 1.26v4.37h-2v-4.53l.3-1.9 2.13-2.9 3.4-1.12h16.67zM235.76 539.5l-14.26 4.64v-9.28z"/><path d="M239 539.5l-18.5 6v-12zm-16.5 3.26l10.03-3.26-10.03-3.26zM235.76 580l-14.26 4.64v-9.28z"/><path d="M239 580l-18.5 6v-12zm-16.5 3.26l10.03-3.26-10.03-3.26z"/><use xlink:href="#d" transform="matrix(1,0,0,1,177.225,548.95) translate(0 14.4)"/><path d="M922 573.83l-1.1 3.4-2.92 2.13-1.9.3H899.5v-2h16.42l1.26-.2 2-1.46.82-2.5v-3.37h2zm-2.43-33.72l2.12 2.92.3 1.9v3.6h-2v-3.44l-.2-1.26-1.46-2-2.5-.82H899.5v-2h16.66zM898.5 544.64L884.24 540l14.26-4.64z"/><path d="M899.5 546l-18.5-6 18.5-6zm-12.03-6l10.03 3.26v-6.52zM898.5 583.3l-14.26-4.63 14.26-4.64z"/><path d="M899.5 584.68l-18.5-6 18.5-6.03zm-12.03-6l10.03 3.25v-6.52z"/><use xlink:href="#d" transform="matrix(1,0,0,1,899.225,548.5333333333333) translate(0 14.4)"/><defs><path d="M199-173c-1 36-21 56-49 65l64 94 26 5v9h-57l-66-103H75v89l35 5v9H13v-9l28-5v-208l-31-4v-10c80 4 190-20 189 63zM75-119c50 2 89-1 89-51 0-49-39-52-89-50v101" id="h"/><path d="M84-170c49 0 66 33 63 87H46c-8 60 38 80 95 63v10C128-2 108 4 88 4 34 4 14-29 14-84c-1-54 22-86 70-86zm33 73c12-57-57-82-69-24-1 7-2 15-2 24h71" id="i"/><path d="M65-12l28 4v8H7v-8l28-4v-226l-28-4v-8h58v238" id="j"/><path d="M32-163c41-10 102-14 102 39v112c8 3 24-2 21 12h-45l-4-17C83 13 3 13 13-46c-2-50 45-50 92-51 4-36-5-70-42-56-6 2-12 4-16 6-4 7 0 23-15 20v-36zM42-47c0 41 41 33 63 22v-59c-34 1-63-1-63 37" id="k"/><path d="M161-154L85 37C75 66 49 86 8 75V39c18-2 6 24 29 21 30-4 38-32 47-58L21-153c-7-3-20 0-17-12h77v8l-26 4 45 116 43-116-26-4v-8h62v8" id="l"/><g id="a"><use transform="matrix(0.05,0,0,0.05,0,0)" xlink:href="#h"/><use transform="matrix(0.05,0,0,0.05,12,0)" xlink:href="#i"/><use transform="matrix(0.05,0,0,0.05,19.95,0)" xlink:href="#j"/><use transform="matrix(0.05,0,0,0.05,24.95,0)" xlink:href="#k"/><use transform="matrix(0.05,0,0,0.05,32.9,0)" xlink:href="#l"/></g><path d="M52-115c0 90 69 126 140 93v-67l-30-5v-9h87v9l-23 5v77c-27 8-56 16-90 16C59 2 15-37 15-115c-1-82 41-123 122-123 31 0 59 4 83 10v51h-12l-5-29c-15-12-38-18-65-18-66-1-86 42-86 109" id="m"/><path d="M54-38c-1 25 24 26 44 20v12C71 10 25 9 25-35v-115H4c-2-14 14-10 21-15l18-38h11v38h38v15H54v112" id="n"/><path d="M240-154L185 4h-14l-41-109L90 4H77L20-153c-7-3-23 1-20-12h79v8l-27 4L91-41l40-108h14l40 109 38-113-28-4v-8h63v8" id="o"/><g id="b"><use transform="matrix(0.05,0,0,0.05,0,0)" xlink:href="#m"/><use transform="matrix(0.05,0,0,0.05,12.950000000000001,0)" xlink:href="#k"/><use transform="matrix(0.05,0,0,0.05,20.900000000000002,0)" xlink:href="#n"/><use transform="matrix(0.05,0,0,0.05,25.900000000000002,0)" xlink:href="#i"/><use transform="matrix(0.05,0,0,0.05,33.85,0)" xlink:href="#o"/><use transform="matrix(0.05,0,0,0.05,46.800000000000004,0)" xlink:href="#k"/><use transform="matrix(0.05,0,0,0.05,54.75,0)" xlink:href="#l"/></g><path d="M10-9l31-5v-208l-31-4v-10h177v57h-11l-6-38c-28-4-63-3-95-3v92h63l6-28h11v73h-11l-6-29H75v96l105-3 10-43h12l-3 62H10v-9" id="p"/><path d="M125-118c4-37-41-34-68-26v132l23 4v8H8C5-13 21-9 28-12v-141c-7-3-23 1-20-12h47l2 13c31-23 98-29 98 31v109c7 3 23-1 20 12h-72v-8l22-4v-106" id="q"/><path d="M13-81c0-71 46-101 114-85l-1-72-28-4v-8h57v238c8 3 24-2 21 12h-47l-2-12C80 23 13-1 13-81zm77-74c-37 1-44 33-45 74 0 38 9 66 45 66 14 0 27-3 36-7v-130c-10-1-24-3-36-3" id="r"/><path d="M166-85c3 67-44 102-111 85l1 64 29 4v9H6v-9l21-4v-217c-7-3-22 1-19-12h46l1 9c11-8 26-14 45-14 47 2 64 36 66 85zM56-13c53 14 83-14 78-72 7-53-33-79-78-60v132" id="s"/><path d="M90-170c52 0 76 32 76 87 0 54-24 87-77 87-51 0-75-34-75-87 0-54 24-87 76-87zM89-10c39 0 46-35 46-73 0-39-7-73-46-73-39 1-44 34-44 73s6 72 44 73" id="t"/><path d="M47-200c-23 0-25-39 0-38 13 0 18 7 20 19-1 11-8 19-20 19zM65-12l28 4v8H8v-8l28-4v-141l-24-4v-8h53v153" id="u"/><g id="c"><use transform="matrix(0.05,0,0,0.05,0,0)" xlink:href="#p"/><use transform="matrix(0.05,0,0,0.05,10.950000000000001,0)" xlink:href="#q"/><use transform="matrix(0.05,0,0,0.05,19.950000000000003,0)" xlink:href="#r"/><use transform="matrix(0.05,0,0,0.05,28.950000000000003,0)" xlink:href="#s"/><use transform="matrix(0.05,0,0,0.05,37.95,0)" xlink:href="#t"/><use transform="matrix(0.05,0,0,0.05,46.95,0)" xlink:href="#u"/><use transform="matrix(0.05,0,0,0.05,51.95,0)" xlink:href="#q"/><use transform="matrix(0.05,0,0,0.05,60.95,0)" xlink:href="#n"/></g><path d="M52-115c0 93 80 130 150 87l7-35h11l-1 55c-23 7-52 12-83 12C60 4 19-37 15-115c-5-113 97-141 201-114l1 51h-12l-5-30c-15-9-39-16-62-16-66 0-86 41-86 109" id="v"/><path d="M57-145c16-10 35-24 60-25v45c-19 1-8-30-40-17l-20 6v124l29 4v8H7v-8l21-4v-141c-8-3-24 2-21-12h48" id="w"/><path d="M141-152c28 39 5 97-54 97-9 0-20-2-27-3L49-35c29 22 130-14 124 52-4 45-38 57-88 61C21 83-8 26 45-2 33-6 22-15 21-31l28-31c-19-9-28-26-28-51-2-51 53-65 100-52l38-20 7 8zM85 64c35 0 61-11 61-42 0-35-57-17-89-21-9 8-16 19-17 34 0 25 19 29 45 29zM52-113c1 26 7 46 35 44 28-1 34-16 35-44 0-26-6-43-34-43s-36 17-36 43" id="x"/><g id="d"><use transform="matrix(0.05,0,0,0.05,0,0)" xlink:href="#v"/><use transform="matrix(0.05,0,0,0.05,12,0)" xlink:href="#k"/><use transform="matrix(0.05,0,0,0.05,19.95,0)" xlink:href="#w"/><use transform="matrix(0.05,0,0,0.05,25.549999999999997,0)" xlink:href="#x"/><use transform="matrix(0.05,0,0,0.05,34.55,0)" xlink:href="#t"/></g><path d="M75-108c48 3 76-12 76-58s-28-57-76-54v112zm111-58c-1 60-46 78-111 74v78l37 5v9H13v-9l28-5v-208l-31-4v-10c81 1 178-14 176 70" id="y"/><path d="M45-84c0 64 52 80 104 63 1 25-30 25-55 25-56 0-80-32-80-88 0-76 62-98 131-80v46h-10c-5-15-4-31-23-35-47-10-67 21-67 69" id="z"/><g id="e"><use transform="matrix(0.05,0,0,0.05,0,0)" xlink:href="#y"/><use transform="matrix(0.05,0,0,0.05,10,0)" xlink:href="#k"/><use transform="matrix(0.05,0,0,0.05,17.95,0)" xlink:href="#w"/><use transform="matrix(0.05,0,0,0.05,23.9,0)" xlink:href="#z"/><use transform="matrix(0.05,0,0,0.05,31.849999999999994,0)" xlink:href="#i"/><use transform="matrix(0.05,0,0,0.05,39.8,0)" xlink:href="#j"/></g><path d="M81-9v9H4v-9l26-5 81-224h33l83 224 30 5v9h-99v-9l31-5-23-68H73L49-14zm38-203L78-98h82" id="A"/><g id="f"><use transform="matrix(0.05,0,0,0.05,0,0)" xlink:href="#A"/><use transform="matrix(0.05,0,0,0.05,12.950000000000001,0)" xlink:href="#s"/><use transform="matrix(0.05,0,0,0.05,21.950000000000003,0)" xlink:href="#s"/><use transform="matrix(0.05,0,0,0.05,30.950000000000003,0)" xlink:href="#j"/><use transform="matrix(0.05,0,0,0.05,35.95,0)" xlink:href="#u"/><use transform="matrix(0.05,0,0,0.05,40.95,0)" xlink:href="#z"/><use transform="matrix(0.05,0,0,0.05,48.900000000000006,0)" xlink:href="#k"/><use transform="matrix(0.05,0,0,0.05,56.85,0)" xlink:href="#n"/><use transform="matrix(0.05,0,0,0.05,61.85,0)" xlink:href="#u"/><use transform="matrix(0.05,0,0,0.05,66.85000000000001,0)" xlink:href="#t"/><use transform="matrix(0.05,0,0,0.05,75.85000000000001,0)" xlink:href="#q"/></g><path d="M152 0h-7L59-203v189l32 5v9H10v-9l31-5v-208l-31-4v-10h72l76 180 84-180h68v10l-31 4v208l31 5v9h-96v-9l32-5v-189" id="B"/><path d="M41-130c7 48 86 23 86 84 0 56-69 57-112 41v-40c20 0 9 29 31 31 35 19 77-26 41-50-27-18-72-13-72-59 0-50 58-52 100-41v36c-19 1-8-25-28-25-21-7-50-1-46 23" id="C"/><g id="g"><use transform="matrix(0.05,0,0,0.05,0,0)" xlink:href="#B"/><use transform="matrix(0.05,0,0,0.05,16,0)" xlink:href="#i"/><use transform="matrix(0.05,0,0,0.05,23.95,0)" xlink:href="#C"/><use transform="matrix(0.05,0,0,0.05,30.950000000000003,0)" xlink:href="#C"/><use transform="matrix(0.05,0,0,0.05,37.95,0)" xlink:href="#k"/><use transform="matrix(0.05,0,0,0.05,45.900000000000006,0)" xlink:href="#x"/><use transform="matrix(0.05,0,0,0.05,54.900000000000006,0)" xlink:href="#i"/></g></defs></g></svg>