<?xml version="1.0" encoding="UTF-8" standalone="no"?>
<svg
   width="842.58917"
   height="322"
   version="1.1"
   id="svg295"
   xmlns:xlink="http://www.w3.org/1999/xlink"
   xmlns="http://www.w3.org/2000/svg"
   xmlns:svg="http://www.w3.org/2000/svg"
   xmlns:rdf="http://www.w3.org/1999/02/22-rdf-syntax-ns#"
   xmlns:cc="http://creativecommons.org/ns#"
   xmlns:dc="http://purl.org/dc/elements/1.1/"
   xmlns:lucid="lucid">
  <metadata
     id="metadata301">
    <rdf:RDF>
      <cc:Work
         rdf:about="">
        <dc:format>image/svg+xml</dc:format>
        <dc:type
           rdf:resource="http://purl.org/dc/dcmitype/StillImage" />
      </cc:Work>
    </rdf:RDF>
  </metadata>
  <defs
     id="defs299" />
  <g
     id="layer1"
     style="fill:#000080">
    <rect
       style="fill:#ffffff"
       id="rect744"
       width="1010.8919"
       height="426.36942"
       x="-19.16184"
       y="-12.736078" />
  </g>
  <g
     transform="translate(-110.35,-319)"
     lucid:page-tab-id="0_0"
     id="g293"
     style="display:inline">
    <path
       d="m 240,565 c 0,-2.76 2.24,-5 5,-5 h 572.67 c 2.76,0 5,2.24 5,5 v 70 c 0,2.76 -2.24,5 -5,5 H 245 c -2.76,0 -5,-2.24 -5,-5 z"
       id="path2"
       style="fill:#ffffff;stroke:#000000;stroke-width:2" />
    <use
       xlink:href="#a"
       transform="translate(504.075,604.1)"
       id="use4"
       x="0"
       y="0"
       width="100%"
       height="100%" />
    <path
       d="m 240,485 c 0,-2.76 2.24,-5 5,-5 h 150 c 2.76,0 5,2.24 5,5 v 70 c 0,2.76 -2.24,5 -5,5 H 245 c -2.76,0 -5,-2.24 -5,-5 z"
       id="path6"
       style="fill:#ffffff;stroke:#000000;stroke-width:2" />
    <use
       xlink:href="#b"
       transform="translate(288.125,523.6)"
       id="use8"
       x="0"
       y="0"
       width="100%"
       height="100%" />
    <path
       d="m 677,485 c 0,-2.76 2.24,-5 5,-5 h 135.67 c 2.76,0 5,2.24 5,5 v 70 c 0,2.76 -2.24,5 -5,5 H 682 c -2.76,0 -5,-2.24 -5,-5 z"
       id="path10"
       style="fill:#ffffff;stroke:#000000;stroke-width:2" />
    <use
       xlink:href="#b"
       transform="translate(718.12941,523.6)"
       id="use12"
       x="0"
       y="0"
       width="100%"
       height="100%" />
    <path
       d="m 240,405 c 0,-2.76 2.24,-5 5,-5 h 150 c 2.76,0 5,2.24 5,5 v 70 c 0,2.76 -2.24,5 -5,5 H 245 c -2.76,0 -5,-2.24 -5,-5 z"
       id="path14"
       style="fill:#ffffff;stroke:#000000;stroke-width:2" />
    <use
       xlink:href="#c"
       transform="translate(287.025,443.6)"
       id="use16"
       x="0"
       y="0"
       width="100%"
       height="100%" />
    <path
       d="m 677,405 c 0,-2.76 2.24,-5 5,-5 h 135.67 c 2.76,0 5,2.24 5,5 v 70 c 0,2.76 -2.24,5 -5,5 H 682 c -2.76,0 -5,-2.24 -5,-5 z"
       id="path18"
       style="fill:#ffffff;stroke:#000000;stroke-width:2" />
    <use
       xlink:href="#c"
       transform="translate(717.02941,443.6)"
       id="use20"
       x="0"
       y="0"
       width="100%"
       height="100%" />
    <path
       d="m 423.47,521 h -3.97 v -2 h 3.97 z m 15.87,0 h -7.94 v -2 h 7.94 z m 15.86,0 h -7.93 v -2 h 7.93 z m 15.87,0 h -7.93 v -2 h 7.93 z m 15.87,0 H 479 v -2 h 7.94 z m 15.86,0 h -7.93 v -2 h 7.93 z m 13.93,0 h -6 v -2 h 6 z m 65.4,0 h -7.93 v -2 h 7.94 z m 15.87,0 h -7.93 v -2 H 598 Z m 15.87,0 h -7.93 v -2 h 7.93 z m 15.87,0 h -7.94 v -2 h 7.94 z m 15.86,0 h -7.93 v -2 h 7.93 z m 11.9,0 h -3.96 v -2 h 3.96 z m -91.23,0 h -6 v -2 h 6 z M 418.5,524.64 404.24,520 418.5,515.36 Z"
       id="path22" />
    <path
       d="m 419.5,526 -18.5,-6 18.5,-6 z m -12.03,-6 10.03,3.26 v -6.52 z m 265.3,0 -14.27,4.64 v -9.28 z"
       id="path24" />
    <path
       d="m 676,520 -18.5,6 v -12 z m -16.5,3.26 10.03,-3.26 -10.03,-3.26 z"
       id="path26" />
    <use
       xlink:href="#d"
       transform="translate(516.7272,523.6)"
       id="use28"
       x="0"
       y="0"
       width="100%"
       height="100%" />
    <path
       d="m 423.47,441 h -3.97 v -2 h 3.97 z m 15.87,0 h -7.94 v -2 h 7.94 z m 15.86,0 h -7.93 v -2 h 7.93 z m 15.87,0 h -7.93 v -2 h 7.93 z m 15.87,0 H 479 v -2 h 7.94 z m 15.86,0 h -7.93 v -2 h 7.93 z m 13.3,0 h -5.36 v -2 h 5.36 z m 66.04,0 h -7.94 v -2 h 7.94 z m 15.86,0 h -7.93 v -2 H 598 Z m 15.87,0 h -7.93 v -2 h 7.93 z m 15.87,0 h -7.94 v -2 h 7.94 z m 15.86,0 h -7.93 v -2 h 7.93 z m 11.9,0 h -3.96 v -2 h 3.96 z m -91.23,0 h -5.37 v -2 h 5.37 z M 418.5,444.64 404.24,440 418.5,435.36 Z"
       id="path30" />
    <path
       d="m 419.5,446 -18.5,-6 18.5,-6 z m -12.03,-6 10.03,3.26 v -6.52 z m 265.3,0 -14.27,4.64 v -9.28 z"
       id="path32" />
    <path
       d="m 676,440 -18.5,6 v -12 z m -16.5,3.26 10.03,-3.26 -10.03,-3.26 z"
       id="path34" />
    <use
       xlink:href="#e"
       transform="translate(516.1022,443.6)"
       id="use36"
       x="0"
       y="0"
       width="100%"
       height="100%" />
    <path
       d="m 240,325 c 0,-2.76 2.24,-5 5,-5 h 150 c 2.76,0 5,2.24 5,5 v 70 c 0,2.76 -2.24,5 -5,5 H 245 c -2.76,0 -5,-2.24 -5,-5 z"
       id="path38"
       style="fill:#ffffff;stroke:#000000;stroke-width:2" />
    <use
       xlink:href="#f"
       transform="translate(277.575,363.6)"
       id="use40"
       x="0"
       y="0"
       width="100%"
       height="100%" />
    <path
       d="m 677,325 c 0,-2.76 2.24,-5 5,-5 h 135.67 c 2.76,0 5,2.24 5,5 v 70 c 0,2.76 -2.24,5 -5,5 H 682 c -2.76,0 -5,-2.24 -5,-5 z"
       id="path42"
       style="fill:#ffffff;stroke:#000000;stroke-width:2" />
    <use
       xlink:href="#f"
       transform="translate(707.57941,363.6)"
       id="use44"
       x="0"
       y="0"
       width="100%"
       height="100%" />
    <path
       d="m 423.47,361 h -3.97 v -2 h 3.97 z m 15.87,0 h -7.94 v -2 h 7.94 z m 15.86,0 h -7.93 v -2 h 7.93 z m 15.87,0 h -7.93 v -2 h 7.93 z m 142.8,0 h -7.93 v -2 h 7.93 z m 15.87,0 h -7.94 v -2 h 7.94 z m 15.86,0 h -7.93 v -2 h 7.93 z m 11.9,0 h -3.96 v -2 h 3.96 z m -239,3.64 -14.26,-4.64 14.26,-4.64 z"
       id="path46" />
    <path
       d="m 419.5,366 -18.5,-6 18.5,-6 z m -12.03,-6 10.03,3.26 v -6.52 z m 265.3,0 -14.27,4.64 v -9.28 z"
       id="path48" />
    <path
       d="m 676,360 -18.5,6 v -12 z m -16.5,3.26 10.03,-3.26 -10.03,-3.26 z"
       id="path50" />
    <use
       xlink:href="#g"
       transform="translate(477.9272,363.6)"
       id="use52"
       x="0"
       y="0"
       width="100%"
       height="100%" />
    <use
       xlink:href="#h"
       transform="translate(536.2272,363.6)"
       id="use54"
       x="0"
       y="0"
       width="100%"
       height="100%" />
    <path
       d="M 220.5,377.33 H 204 c -2.76,0 -5,2.24 -5,5 v 31.34 c 0,2.76 2.24,5 5,5 h 16.5"
       id="path56"
       style="fill:none;stroke:#000000;stroke-width:2" />
    <path
       d="m 235.76,377.33 -14.26,4.64 v -9.27 z m 0,41.34 -14.26,4.63 v -9.27 z"
       id="path58"
       style="stroke:#000000;stroke-width:2" />
    <use
       xlink:href="#i"
       transform="translate(109.15,401.6)"
       id="use60"
       x="0"
       y="0"
       width="100%"
       height="100%" />
    <use
       xlink:href="#j"
       transform="translate(128.15,401.6)"
       id="use62"
       x="0"
       y="0"
       width="100%"
       height="100%" />
    <path
       d="m 842.17,378.7 h 16.5 c 2.76,0 5,2.23 5,5 v 28.6 c 0,2.77 -2.24,5 -5,5 h -16.5"
       id="path64"
       style="fill:none;stroke:#000000;stroke-width:2" />
    <path
       d="m 826.9,378.7 14.27,-4.65 v 9.27 z m 0,38.6 14.27,-4.63 v 9.27 z"
       id="path66"
       style="stroke:#000000;stroke-width:2" />
    <use
       xlink:href="#i"
       transform="translate(871.67254,401.59757)"
       id="use68"
       x="0"
       y="0"
       width="100%"
       height="100%" />
    <use
       xlink:href="#h"
       transform="translate(890.67254,401.59757)"
       id="use70"
       x="0"
       y="0"
       width="100%"
       height="100%" />
    <path
       d="M 220.5,459.5 H 204 c -2.76,0 -5,2.24 -5,5 v 27.83 c 0,2.76 2.24,5 5,5 h 16.5"
       id="path72"
       style="fill:none;stroke:#000000;stroke-width:2" />
    <path
       d="m 235.76,459.5 -14.26,4.64 v -9.28 z m 0,37.83 -14.26,4.64 v -9.27 z"
       id="path74"
       style="stroke:#000000;stroke-width:2" />
    <use
       xlink:href="#k"
       transform="translate(146.2,482.01667)"
       id="use76"
       x="0"
       y="0"
       width="100%"
       height="100%" />
    <path
       d="m 842.17,460.02 h 16.5 c 2.76,0 5,2.24 5,5 v 27.3 c 0,2.75 -2.24,5 -5,5 h -16.5"
       id="path78"
       style="fill:none;stroke:#000000;stroke-width:2" />
    <path
       d="m 826.9,460.02 14.27,-4.63 v 9.26 z m 0,37.28 14.27,-4.63 v 9.27 z"
       id="path80"
       style="stroke:#000000;stroke-width:2" />
    <use
       xlink:href="#k"
       transform="translate(871.67254,482.26505)"
       id="use82"
       x="0"
       y="0"
       width="100%"
       height="100%" />
    <path
       d="M 220.5,539.5 H 204 c -2.76,0 -5,2.24 -5,5 V 575 c 0,2.76 2.24,5 5,5 h 16.5"
       id="path84"
       style="fill:none;stroke:#000000;stroke-width:2" />
    <path
       d="m 235.76,539.5 -14.26,4.64 v -9.28 z m 0,40.5 -14.26,4.63 v -9.27 z"
       id="path86"
       style="stroke:#000000;stroke-width:2" />
    <use
       xlink:href="#l"
       transform="translate(147.45,563.34693)"
       id="use88"
       x="0"
       y="0"
       width="100%"
       height="100%" />
    <path
       d="m 842.17,540.02 h 16.5 c 2.76,0 5,2.24 5,5 v 28.64 c 0,2.76 -2.24,5 -5,5 h -16.5"
       id="path90"
       style="fill:none;stroke:#000000;stroke-width:2" />
    <path
       d="m 826.9,540.02 14.27,-4.63 v 9.26 z m 0,38.64 14.27,-4.64 v 9.28 z"
       id="path92"
       style="stroke:#000000;stroke-width:2" />
    <g
       id="g96">
      <use
         xlink:href="#l"
         transform="translate(871.67254,562.94221)"
         id="use94"
         x="0"
         y="0"
         width="100%"
         height="100%" />
    </g>
    <defs
       id="defs291">
      <path
         d="m 52,-115 c 0,93 80,130 150,87 l 7,-35 h 11 l -1,55 C 196,-1 167,4 136,4 60,4 19,-37 15,-115 10,-228 112,-256 216,-229 l 1,51 h -12 l -5,-30 c -15,-9 -39,-16 -62,-16 -66,0 -86,41 -86,109"
         id="m" />
      <path
         d="m 90,-170 c 52,0 76,32 76,87 0,54 -24,87 -77,87 -51,0 -75,-34 -75,-87 0,-54 24,-87 76,-87 z m -1,160 c 39,0 46,-35 46,-73 0,-39 -7,-73 -46,-73 -39,1 -44,34 -44,73 0,39 6,72 44,73"
         id="n" />
      <path
         d="M 124,-13 C 89,8 26,15 26,-45 v -108 c -8,-3 -24,2 -21,-12 h 50 v 118 c -3,37 42,32 69,25 v -131 l -25,-4 v -8 h 54 v 153 c 8,3 24,-2 21,12 h -48"
         id="o" />
      <path
         d="m 57,-145 c 16,-10 35,-24 60,-25 v 45 c -19,1 -8,-30 -40,-17 l -20,6 v 124 l 29,4 V 0 H 7 v -8 l 21,-4 v -141 c -8,-3 -24,2 -21,-12 h 48"
         id="p" />
      <path
         d="m 47,-200 c -23,0 -25,-39 0,-38 13,0 18,7 20,19 -1,11 -8,19 -20,19 z m 18,188 28,4 V 0 H 8 v -8 l 28,-4 v -141 l -24,-4 v -8 h 53 v 153"
         id="q" />
      <path
         d="m 84,-170 c 49,0 66,33 63,87 H 46 c -8,60 38,80 95,63 v 10 C 128,-2 108,4 88,4 34,4 14,-29 14,-84 c -1,-54 22,-86 70,-86 z m 33,73 c 12,-57 -57,-82 -69,-24 -1,7 -2,15 -2,24 h 71"
         id="r" />
      <g
         id="a">
        <use
           transform="scale(0.05)"
           xlink:href="#m"
           id="use104"
           x="0"
           y="0"
           width="100%"
           height="100%" />
        <use
           transform="matrix(0.05,0,0,0.05,12,0)"
           xlink:href="#n"
           id="use106"
           x="0"
           y="0"
           width="100%"
           height="100%" />
        <use
           transform="matrix(0.05,0,0,0.05,21,0)"
           xlink:href="#o"
           id="use108"
           x="0"
           y="0"
           width="100%"
           height="100%" />
        <use
           transform="matrix(0.05,0,0,0.05,30,0)"
           xlink:href="#p"
           id="use110"
           x="0"
           y="0"
           width="100%"
           height="100%" />
        <use
           transform="matrix(0.05,0,0,0.05,35.95,0)"
           xlink:href="#q"
           id="use112"
           x="0"
           y="0"
           width="100%"
           height="100%" />
        <use
           transform="matrix(0.05,0,0,0.05,40.95,0)"
           xlink:href="#r"
           id="use114"
           x="0"
           y="0"
           width="100%"
           height="100%" />
        <use
           transform="matrix(0.05,0,0,0.05,48.9,0)"
           xlink:href="#p"
           id="use116"
           x="0"
           y="0"
           width="100%"
           height="100%" />
      </g>
      <path
         d="m 52,-115 c 0,90 69,126 140,93 v -67 l -30,-5 v -9 h 87 v 9 l -23,5 v 77 C 199,-4 170,4 136,4 59,2 15,-37 15,-115 c -1,-82 41,-123 122,-123 31,0 59,4 83,10 v 51 h -12 l -5,-29 c -15,-12 -38,-18 -65,-18 -66,-1 -86,42 -86,109"
         id="s" />
      <path
         d="m 32,-163 c 41,-10 102,-14 102,39 v 112 c 8,3 24,-2 21,12 h -45 l -4,-17 C 83,13 3,13 13,-46 c -2,-50 45,-50 92,-51 4,-36 -5,-70 -42,-56 -6,2 -12,4 -16,6 -4,7 0,23 -15,20 z m 10,116 c 0,41 41,33 63,22 v -59 c -34,1 -63,-1 -63,37"
         id="t" />
      <path
         d="m 54,-38 c -1,25 24,26 44,20 V -6 C 71,10 25,9 25,-35 V -150 H 4 c -2,-14 14,-10 21,-15 l 18,-38 h 11 v 38 h 38 v 15 H 54 v 112"
         id="u" />
      <path
         d="M 240,-154 185,4 H 171 L 130,-105 90,4 H 77 L 20,-153 c -7,-3 -23,1 -20,-12 h 79 v 8 l -27,4 39,112 40,-108 h 14 l 40,109 38,-113 -28,-4 v -8 h 63 v 8"
         id="v" />
      <path
         d="M 161,-154 85,37 C 75,66 49,86 8,75 V 39 C 26,37 14,63 37,60 67,56 75,28 84,2 L 21,-153 c -7,-3 -20,0 -17,-12 h 77 v 8 l -26,4 45,116 43,-116 -26,-4 v -8 h 62 v 8"
         id="w" />
      <g
         id="b">
        <use
           transform="scale(0.05)"
           xlink:href="#s"
           id="use124"
           x="0"
           y="0"
           width="100%"
           height="100%" />
        <use
           transform="matrix(0.05,0,0,0.05,12.95,0)"
           xlink:href="#t"
           id="use126"
           x="0"
           y="0"
           width="100%"
           height="100%" />
        <use
           transform="matrix(0.05,0,0,0.05,20.9,0)"
           xlink:href="#u"
           id="use128"
           x="0"
           y="0"
           width="100%"
           height="100%" />
        <use
           transform="matrix(0.05,0,0,0.05,25.9,0)"
           xlink:href="#r"
           id="use130"
           x="0"
           y="0"
           width="100%"
           height="100%" />
        <use
           transform="matrix(0.05,0,0,0.05,33.85,0)"
           xlink:href="#v"
           id="use132"
           x="0"
           y="0"
           width="100%"
           height="100%" />
        <use
           transform="matrix(0.05,0,0,0.05,46.8,0)"
           xlink:href="#t"
           id="use134"
           x="0"
           y="0"
           width="100%"
           height="100%" />
        <use
           transform="matrix(0.05,0,0,0.05,54.75,0)"
           xlink:href="#w"
           id="use136"
           x="0"
           y="0"
           width="100%"
           height="100%" />
      </g>
      <path
         d="m 10,-9 31,-5 v -208 l -31,-4 v -10 h 177 v 57 h -11 l -6,-38 c -28,-4 -63,-3 -95,-3 v 92 h 63 l 6,-28 h 11 v 73 h -11 l -6,-29 H 75 v 96 l 105,-3 10,-43 h 12 L 199,0 H 10 v -9"
         id="x" />
      <path
         d="m 125,-118 c 4,-37 -41,-34 -68,-26 v 132 l 23,4 V 0 H 8 C 5,-13 21,-9 28,-12 v -141 c -7,-3 -23,1 -20,-12 h 47 l 2,13 c 31,-23 98,-29 98,31 v 109 c 7,3 23,-1 20,12 h -72 v -8 l 22,-4 v -106"
         id="y" />
      <path
         d="m 13,-81 c 0,-71 46,-101 114,-85 l -1,-72 -28,-4 v -8 h 57 v 238 c 8,3 24,-2 21,12 h -47 l -2,-12 C 80,23 13,-1 13,-81 Z m 77,-74 c -37,1 -44,33 -45,74 0,38 9,66 45,66 14,0 27,-3 36,-7 v -130 c -10,-1 -24,-3 -36,-3"
         id="z" />
      <path
         d="M 166,-85 C 169,-18 122,17 55,0 l 1,64 29,4 v 9 H 6 v -9 l 21,-4 v -217 c -7,-3 -22,1 -19,-12 h 46 l 1,9 c 11,-8 26,-14 45,-14 47,2 64,36 66,85 z M 56,-13 c 53,14 83,-14 78,-72 7,-53 -33,-79 -78,-60 v 132"
         id="A" />
      <g
         id="c">
        <use
           transform="scale(0.05)"
           xlink:href="#x"
           id="use143"
           x="0"
           y="0"
           width="100%"
           height="100%" />
        <use
           transform="matrix(0.05,0,0,0.05,10.95,0)"
           xlink:href="#y"
           id="use145"
           x="0"
           y="0"
           width="100%"
           height="100%" />
        <use
           transform="matrix(0.05,0,0,0.05,19.95,0)"
           xlink:href="#z"
           id="use147"
           x="0"
           y="0"
           width="100%"
           height="100%" />
        <use
           transform="matrix(0.05,0,0,0.05,28.95,0)"
           xlink:href="#A"
           id="use149"
           x="0"
           y="0"
           width="100%"
           height="100%" />
        <use
           transform="matrix(0.05,0,0,0.05,37.95,0)"
           xlink:href="#n"
           id="use151"
           x="0"
           y="0"
           width="100%"
           height="100%" />
        <use
           transform="matrix(0.05,0,0,0.05,46.95,0)"
           xlink:href="#q"
           id="use153"
           x="0"
           y="0"
           width="100%"
           height="100%" />
        <use
           transform="matrix(0.05,0,0,0.05,51.95,0)"
           xlink:href="#y"
           id="use155"
           x="0"
           y="0"
           width="100%"
           height="100%" />
        <use
           transform="matrix(0.05,0,0,0.05,60.95,0)"
           xlink:href="#u"
           id="use157"
           x="0"
           y="0"
           width="100%"
           height="100%" />
      </g>
      <path
         d="m 141,-152 c 28,39 5,97 -54,97 -9,0 -20,-2 -27,-3 L 49,-35 C 78,-13 179,-49 173,17 169,62 135,74 85,78 21,83 -8,26 45,-2 33,-6 22,-15 21,-31 l 28,-31 c -19,-9 -28,-26 -28,-51 -2,-51 53,-65 100,-52 l 38,-20 7,8 z M 85,64 C 120,64 146,53 146,22 146,-13 89,5 57,1 48,9 41,20 40,35 40,60 59,64 85,64 Z M 52,-113 c 1,26 7,46 35,44 28,-1 34,-16 35,-44 0,-26 -6,-43 -34,-43 -28,0 -36,17 -36,43"
         id="B" />
      <g
         id="d">
        <use
           transform="scale(0.05)"
           xlink:href="#m"
           id="use161"
           x="0"
           y="0"
           width="100%"
           height="100%" />
        <use
           transform="matrix(0.05,0,0,0.05,12,0)"
           xlink:href="#t"
           id="use163"
           x="0"
           y="0"
           width="100%"
           height="100%" />
        <use
           transform="matrix(0.05,0,0,0.05,19.95,0)"
           xlink:href="#p"
           id="use165"
           x="0"
           y="0"
           width="100%"
           height="100%" />
        <use
           transform="matrix(0.05,0,0,0.05,25.55,0)"
           xlink:href="#B"
           id="use167"
           x="0"
           y="0"
           width="100%"
           height="100%" />
        <use
           transform="matrix(0.05,0,0,0.05,34.55,0)"
           xlink:href="#n"
           id="use169"
           x="0"
           y="0"
           width="100%"
           height="100%" />
      </g>
      <path
         d="m 75,-108 c 48,3 76,-12 76,-58 0,-46 -28,-57 -76,-54 z m 111,-58 c -1,60 -46,78 -111,74 v 78 l 37,5 V 0 H 13 v -9 l 28,-5 v -208 l -31,-4 v -10 c 81,1 178,-14 176,70"
         id="C" />
      <path
         d="m 45,-84 c 0,64 52,80 104,63 C 150,4 119,4 94,4 38,4 14,-28 14,-84 c 0,-76 62,-98 131,-80 v 46 h -10 c -5,-15 -4,-31 -23,-35 -47,-10 -67,21 -67,69"
         id="D" />
      <path
         d="m 65,-12 28,4 V 0 H 7 v -8 l 28,-4 v -226 l -28,-4 v -8 h 58 v 238"
         id="E" />
      <g
         id="e">
        <use
           transform="scale(0.05)"
           xlink:href="#C"
           id="use175"
           x="0"
           y="0"
           width="100%"
           height="100%" />
        <use
           transform="matrix(0.05,0,0,0.05,10,0)"
           xlink:href="#t"
           id="use177"
           x="0"
           y="0"
           width="100%"
           height="100%" />
        <use
           transform="matrix(0.05,0,0,0.05,17.95,0)"
           xlink:href="#p"
           id="use179"
           x="0"
           y="0"
           width="100%"
           height="100%" />
        <use
           transform="matrix(0.05,0,0,0.05,23.9,0)"
           xlink:href="#D"
           id="use181"
           x="0"
           y="0"
           width="100%"
           height="100%" />
        <use
           transform="matrix(0.05,0,0,0.05,31.85,0)"
           xlink:href="#r"
           id="use183"
           x="0"
           y="0"
           width="100%"
           height="100%" />
        <use
           transform="matrix(0.05,0,0,0.05,39.8,0)"
           xlink:href="#E"
           id="use185"
           x="0"
           y="0"
           width="100%"
           height="100%" />
      </g>
      <path
         d="M 81,-9 V 0 H 4 v -9 l 26,-5 81,-224 h 33 l 83,224 30,5 v 9 h -99 v -9 l 31,-5 -23,-68 H 73 l -24,68 z m 38,-203 -41,114 h 82"
         id="F" />
      <g
         id="f">
        <use
           transform="scale(0.05)"
           xlink:href="#F"
           id="use189"
           x="0"
           y="0"
           width="100%"
           height="100%" />
        <use
           transform="matrix(0.05,0,0,0.05,12.95,0)"
           xlink:href="#A"
           id="use191"
           x="0"
           y="0"
           width="100%"
           height="100%" />
        <use
           transform="matrix(0.05,0,0,0.05,21.95,0)"
           xlink:href="#A"
           id="use193"
           x="0"
           y="0"
           width="100%"
           height="100%" />
        <use
           transform="matrix(0.05,0,0,0.05,30.95,0)"
           xlink:href="#E"
           id="use195"
           x="0"
           y="0"
           width="100%"
           height="100%" />
        <use
           transform="matrix(0.05,0,0,0.05,35.95,0)"
           xlink:href="#q"
           id="use197"
           x="0"
           y="0"
           width="100%"
           height="100%" />
        <use
           transform="matrix(0.05,0,0,0.05,40.95,0)"
           xlink:href="#D"
           id="use199"
           x="0"
           y="0"
           width="100%"
           height="100%" />
        <use
           transform="matrix(0.05,0,0,0.05,48.9,0)"
           xlink:href="#t"
           id="use201"
           x="0"
           y="0"
           width="100%"
           height="100%" />
        <use
           transform="matrix(0.05,0,0,0.05,56.85,0)"
           xlink:href="#u"
           id="use203"
           x="0"
           y="0"
           width="100%"
           height="100%" />
        <use
           transform="matrix(0.05,0,0,0.05,61.85,0)"
           xlink:href="#q"
           id="use205"
           x="0"
           y="0"
           width="100%"
           height="100%" />
        <use
           transform="matrix(0.05,0,0,0.05,66.85,0)"
           xlink:href="#n"
           id="use207"
           x="0"
           y="0"
           width="100%"
           height="100%" />
        <use
           transform="matrix(0.05,0,0,0.05,75.85,0)"
           xlink:href="#y"
           id="use209"
           x="0"
           y="0"
           width="100%"
           height="100%" />
      </g>
      <path
         d="M 178,-68 C 178,11 83,14 24,-9 v -54 h 12 c 1,35 22,52 60,52 50,0 69,-58 33,-82 -39,-24 -105,-21 -105,-85 0,-67 86,-66 142,-53 v 49 h -12 l -6,-29 c -31,-27 -121,-7 -89,42 28,43 119,24 119,101"
         id="G" />
      <path
         d="M 164,-154 98,4 H 85 L 17,-153 c -7,-3 -20,0 -17,-12 h 77 v 8 l -26,4 48,115 46,-115 -26,-4 v -8 h 61 v 8"
         id="H" />
      <g
         id="g">
        <use
           transform="scale(0.05)"
           xlink:href="#G"
           id="use214"
           x="0"
           y="0"
           width="100%"
           height="100%" />
        <use
           transform="matrix(0.05,0,0,0.05,10,0)"
           xlink:href="#r"
           id="use216"
           x="0"
           y="0"
           width="100%"
           height="100%" />
        <use
           transform="matrix(0.05,0,0,0.05,17.95,0)"
           xlink:href="#p"
           id="use218"
           x="0"
           y="0"
           width="100%"
           height="100%" />
        <use
           transform="matrix(0.05,0,0,0.05,23.9,0)"
           xlink:href="#H"
           id="use220"
           x="0"
           y="0"
           width="100%"
           height="100%" />
        <use
           transform="matrix(0.05,0,0,0.05,32.9,0)"
           xlink:href="#q"
           id="use222"
           x="0"
           y="0"
           width="100%"
           height="100%" />
        <use
           transform="matrix(0.05,0,0,0.05,37.9,0)"
           xlink:href="#D"
           id="use224"
           x="0"
           y="0"
           width="100%"
           height="100%" />
        <use
           transform="matrix(0.05,0,0,0.05,45.85,0)"
           xlink:href="#r"
           id="use226"
           x="0"
           y="0"
           width="100%"
           height="100%" />
      </g>
      <path
         d="m 152,0 h -7 L 59,-203 v 189 l 32,5 V 0 H 10 v -9 l 31,-5 v -208 l -31,-4 v -10 h 72 l 76,180 84,-180 h 68 v 10 l -31,4 v 208 l 31,5 v 9 h -96 v -9 l 32,-5 v -189"
         id="I" />
      <path
         d="m 41,-130 c 7,48 86,23 86,84 0,56 -69,57 -112,41 v -40 c 20,0 9,29 31,31 35,19 77,-26 41,-50 -27,-18 -72,-13 -72,-59 0,-50 58,-52 100,-41 v 36 c -19,1 -8,-25 -28,-25 -21,-7 -50,-1 -46,23"
         id="J" />
      <g
         id="h">
        <use
           transform="scale(0.05)"
           xlink:href="#I"
           id="use231"
           x="0"
           y="0"
           width="100%"
           height="100%" />
        <use
           transform="matrix(0.05,0,0,0.05,16,0)"
           xlink:href="#r"
           id="use233"
           x="0"
           y="0"
           width="100%"
           height="100%" />
        <use
           transform="matrix(0.05,0,0,0.05,23.95,0)"
           xlink:href="#J"
           id="use235"
           x="0"
           y="0"
           width="100%"
           height="100%" />
        <use
           transform="matrix(0.05,0,0,0.05,30.95,0)"
           xlink:href="#J"
           id="use237"
           x="0"
           y="0"
           width="100%"
           height="100%" />
        <use
           transform="matrix(0.05,0,0,0.05,37.95,0)"
           xlink:href="#t"
           id="use239"
           x="0"
           y="0"
           width="100%"
           height="100%" />
        <use
           transform="matrix(0.05,0,0,0.05,45.9,0)"
           xlink:href="#B"
           id="use241"
           x="0"
           y="0"
           width="100%"
           height="100%" />
        <use
           transform="matrix(0.05,0,0,0.05,54.9,0)"
           xlink:href="#r"
           id="use243"
           x="0"
           y="0"
           width="100%"
           height="100%" />
      </g>
      <path
         d="m 45,-37 c 13,0 21,8 21,21 C 67,-2 57,4 45,5 33,4 23,-2 24,-16 c 0,-13 8,-21 21,-21"
         id="K" />
      <g
         id="i">
        <use
           transform="scale(0.05)"
           xlink:href="#G"
           id="use247"
           x="0"
           y="0"
           width="100%"
           height="100%" />
        <use
           transform="matrix(0.05,0,0,0.05,10,0)"
           xlink:href="#K"
           id="use249"
           x="0"
           y="0"
           width="100%"
           height="100%" />
      </g>
      <g
         id="j">
        <use
           transform="scale(0.05)"
           xlink:href="#I"
           id="use252"
           x="0"
           y="0"
           width="100%"
           height="100%" />
        <use
           transform="matrix(0.05,0,0,0.05,16,0)"
           xlink:href="#r"
           id="use254"
           x="0"
           y="0"
           width="100%"
           height="100%" />
        <use
           transform="matrix(0.05,0,0,0.05,23.95,0)"
           xlink:href="#J"
           id="use256"
           x="0"
           y="0"
           width="100%"
           height="100%" />
        <use
           transform="matrix(0.05,0,0,0.05,30.95,0)"
           xlink:href="#J"
           id="use258"
           x="0"
           y="0"
           width="100%"
           height="100%" />
        <use
           transform="matrix(0.05,0,0,0.05,37.95,0)"
           xlink:href="#t"
           id="use260"
           x="0"
           y="0"
           width="100%"
           height="100%" />
        <use
           transform="matrix(0.05,0,0,0.05,45.9,0)"
           xlink:href="#B"
           id="use262"
           x="0"
           y="0"
           width="100%"
           height="100%" />
        <use
           transform="matrix(0.05,0,0,0.05,54.9,0)"
           xlink:href="#r"
           id="use264"
           x="0"
           y="0"
           width="100%"
           height="100%" />
      </g>
      <g
         id="k">
        <use
           transform="scale(0.05)"
           xlink:href="#C"
           id="use267"
           x="0"
           y="0"
           width="100%"
           height="100%" />
        <use
           transform="matrix(0.05,0,0,0.05,10,0)"
           xlink:href="#t"
           id="use269"
           x="0"
           y="0"
           width="100%"
           height="100%" />
        <use
           transform="matrix(0.05,0,0,0.05,17.95,0)"
           xlink:href="#p"
           id="use271"
           x="0"
           y="0"
           width="100%"
           height="100%" />
        <use
           transform="matrix(0.05,0,0,0.05,23.9,0)"
           xlink:href="#D"
           id="use273"
           x="0"
           y="0"
           width="100%"
           height="100%" />
        <use
           transform="matrix(0.05,0,0,0.05,31.85,0)"
           xlink:href="#r"
           id="use275"
           x="0"
           y="0"
           width="100%"
           height="100%" />
        <use
           transform="matrix(0.05,0,0,0.05,39.8,0)"
           xlink:href="#E"
           id="use277"
           x="0"
           y="0"
           width="100%"
           height="100%" />
      </g>
      <g
         id="l">
        <use
           transform="scale(0.05)"
           xlink:href="#m"
           id="use280"
           x="0"
           y="0"
           width="100%"
           height="100%" />
        <use
           transform="matrix(0.05,0,0,0.05,12,0)"
           xlink:href="#t"
           id="use282"
           x="0"
           y="0"
           width="100%"
           height="100%" />
        <use
           transform="matrix(0.05,0,0,0.05,19.95,0)"
           xlink:href="#p"
           id="use284"
           x="0"
           y="0"
           width="100%"
           height="100%" />
        <use
           transform="matrix(0.05,0,0,0.05,25.55,0)"
           xlink:href="#B"
           id="use286"
           x="0"
           y="0"
           width="100%"
           height="100%" />
        <use
           transform="matrix(0.05,0,0,0.05,34.55,0)"
           xlink:href="#n"
           id="use288"
           x="0"
           y="0"
           width="100%"
           height="100%" />
      </g>
    </defs>
  </g>
</svg>
